<?xml version="1.0" encoding="UTF-8"?>
<svg version="1.1" xmlns="http://www.w3.org/2000/svg" width="192" height="192">
<path d="M0 0 C63.36 0 126.72 0 192 0 C192 63.36 192 126.72 192 192 C128.64 192 65.28 192 0 192 C0 128.64 0 65.28 0 0 Z " fill="#FDFDFD" transform="translate(0,0)"/>
<path d="M0 0 C3.40829937 1.61817175 5.79530758 3.47765964 8.5625 6.0625 C12.04692728 9.25698224 15.57569235 12.33831892 19.25 15.3125 C23.51731435 18.76842359 27.71303684 22.29386904 31.875 25.875 C40.32739092 33.14500395 48.78575697 40.4047966 57.4375 47.4375 C62.30129025 51.39508188 67.05881231 55.46542446 71.80834961 59.55834961 C76.19246706 63.32858271 80.64871764 66.99925631 85.140625 70.640625 C89.14193238 73.94225022 93.06252499 77.33627044 96.96679688 80.75195312 C99.85655755 83.25731156 102.76688421 85.56868785 105.921875 87.734375 C106.93765625 88.48203125 107.9534375 89.2296875 109 90 C109 90.66 109 91.32 109 92 C109.8971875 92.4021875 109.8971875 92.4021875 110.8125 92.8125 C113.08831537 94.04794263 114.39584737 94.97404509 116 97 C116.34057617 99.36010742 116.34057617 99.36010742 116.29296875 102.10546875 C116.28330078 103.08837891 116.27363281 104.07128906 116.26367188 105.08398438 C116.23853516 106.10814453 116.21339844 107.13230469 116.1875 108.1875 C116.16719727 109.74114258 116.16719727 109.74114258 116.14648438 111.32617188 C116.11111389 113.88463699 116.06175544 116.4420578 116 119 C112.79945031 117.83012982 110.29156645 116.6766147 107.73046875 114.42578125 C107.15586914 113.9265918 106.58126953 113.42740234 105.98925781 112.91308594 C105.39467773 112.38489258 104.80009766 111.85669922 104.1875 111.3125 C103.56584961 110.77012695 102.94419922 110.22775391 102.30371094 109.66894531 C100.52984663 108.11924558 98.76348526 106.56149085 97 105 C92.87926931 101.36082381 88.75478685 97.78078111 84.4375 94.375 C79.41355634 90.39129007 74.58191632 86.20904289 69.7487793 81.99853516 C61.78789875 75.06444492 53.75409748 68.22340481 45.5625 61.5625 C40.69870975 57.60491812 35.94118769 53.53457554 31.19165039 49.44165039 C27.66701081 46.41054711 24.10960118 43.43014684 20.5 40.5 C4.54761905 27.54761905 4.54761905 27.54761905 0 23 C-0.08713831 21.29227642 -0.10700007 19.58101351 -0.09765625 17.87109375 C-0.09443359 16.83662109 -0.09121094 15.80214844 -0.08789062 14.73632812 C-0.07951172 13.64771484 -0.07113281 12.55910156 -0.0625 11.4375 C-0.05798828 10.34501953 -0.05347656 9.25253906 -0.04882812 8.12695312 C-0.03699826 5.41791505 -0.02051543 2.70898401 0 0 Z " fill="#363636" transform="translate(39,35)"/>
<path d="M0 0 C8.53208128 4.12900146 15.52859894 11.26590832 22.671875 17.42407227 C26.5415853 20.75906852 30.44129504 24.05328828 34.375 27.3125 C38.31595708 30.58099218 42.23124195 33.8590906 45.9765625 37.3515625 C48.00757328 39.12168852 48.00757328 39.12168852 50.7109375 40.3984375 C54.13571194 42.36504467 55.8611961 43.63288703 58 47 C59.27322647 54.56563076 58.60858346 62.38989792 58 70 C54.63728007 68.38543439 52.00404093 66.51399141 49.125 64.125 C47.67480469 62.92230469 47.67480469 62.92230469 46.1953125 61.6953125 C42.16719058 58.31048391 38.17982806 54.87810544 34.19384766 51.44384766 C29.8128728 47.67556308 25.35873442 44.0079777 20.87109375 40.3671875 C16.7839589 36.99738652 12.77374376 33.53996601 8.76953125 30.07226562 C8.2075 29.58693359 7.64546875 29.10160156 7.06640625 28.6015625 C6.57084229 28.17182129 6.07527832 27.74208008 5.56469727 27.29931641 C3.96288686 25.90654788 3.96288686 25.90654788 1.83276367 24.67016602 C0 23 0 23 -0.45410156 20.5480957 C-0.4331543 19.60023193 -0.41220703 18.65236816 -0.390625 17.67578125 C-0.37773438 16.64775391 -0.36484375 15.61972656 -0.3515625 14.56054688 C-0.31804687 13.48869141 -0.28453125 12.41683594 -0.25 11.3125 C-0.23195313 10.22904297 -0.21390625 9.14558594 -0.1953125 8.02929688 C-0.14813508 5.35197854 -0.08232249 2.67643091 0 0 Z " fill="#383838" transform="translate(97,47)"/>
<path d="M0 0 C5.06412728 3.71913425 9.95049448 7.56091546 14.6875 11.6875 C15.90596025 12.73991889 17.12471716 13.7919944 18.34375 14.84375 C18.9521875 15.3696875 19.560625 15.895625 20.1875 16.4375 C26.90765468 22.2307368 33.69026526 27.95050315 40.5625 33.5625 C41.87347656 34.67625 41.87347656 34.67625 43.2109375 35.8125 C45.99623745 38.10252325 45.99623745 38.10252325 49.3515625 39.9375 C56.08757878 44.22835814 56.08757878 44.22835814 58 48 C59.47044745 55.88794954 58.7397356 64.05827449 58 72 C53.52583744 68.71599512 49.19278907 65.41128117 45.125 61.625 C41.10275411 57.95171608 36.95767418 54.52236059 32.68359375 51.1484375 C26.04227895 45.83151881 19.60990009 40.25043254 13.1640625 34.69921875 C12.53145508 34.15491211 11.89884766 33.61060547 11.24707031 33.04980469 C10.02363153 31.99612841 8.80156507 30.94085603 7.58105469 29.88378906 C5.12071952 27.76330286 2.70656426 25.80437617 0 24 C-0.34057617 21.56982422 -0.34057617 21.56982422 -0.29296875 18.5546875 C-0.28330078 17.47832031 -0.27363281 16.40195313 -0.26367188 15.29296875 C-0.23853516 14.16503906 -0.21339844 13.03710938 -0.1875 11.875 C-0.17396484 10.73933594 -0.16042969 9.60367188 -0.14648438 8.43359375 C-0.11104319 5.62192613 -0.06163517 2.81119583 0 0 Z " fill="#383838" transform="translate(39,72)"/>
<path d="M0 0 C3.63177507 2.04046726 6.58268448 4.28618385 9.625 7.125 C14.19526127 11.31783729 18.92042047 15.26261138 23.75 19.15234375 C27.96058399 22.60999345 27.96058399 22.60999345 28.22705078 25.24658203 C28.21657715 26.15778809 28.20610352 27.06899414 28.1953125 28.0078125 C28.18886719 28.99394531 28.18242187 29.98007812 28.17578125 30.99609375 C28.15902344 32.02863281 28.14226562 33.06117187 28.125 34.125 C28.11597656 35.16527344 28.10695312 36.20554688 28.09765625 37.27734375 C28.07403747 39.85179092 28.04110149 42.42578212 28 45 C22.70379295 43.98127837 19.39314039 40.26542973 15.51513672 36.75292969 C12.69534962 34.22768143 10.19306658 32.10637873 6.859375 30.26953125 C3.50133848 28.40342238 1.96651321 27.34838736 0 24 C-1.21740551 16.07820967 -0.60825369 7.95782982 0 0 Z " fill="#363636" transform="translate(127,34)"/>
<path d="M0 0 C4.54456135 2.13800816 8.04918075 5.27170097 11.7722168 8.58325195 C14.54716099 11.02478316 17.06653139 13.03799542 20.296875 14.8828125 C23.89050582 17.03340504 25.77365684 18.41165868 28 22 C29.34169623 29.90612155 28.67359276 38.0497212 28 46 C22.77706858 42.17081404 17.75842322 38.18991909 12.875 33.9375 C11.70607485 32.92538188 10.53680717 31.9136592 9.3671875 30.90234375 C8.80950684 30.40484619 8.25182617 29.90734863 7.67724609 29.39477539 C6.047442 27.97071702 6.047442 27.97071702 4.24853516 26.93139648 C2.59375 25.8671875 2.59375 25.8671875 0 23 C-0.72896165 19.03707868 -0.56614901 15.19917853 -0.375 11.1875 C-0.34792969 10.11306641 -0.32085937 9.03863281 -0.29296875 7.93164062 C-0.22241045 5.28570432 -0.12388756 2.6438876 0 0 Z " fill="#373737" transform="translate(39,110)"/>
</svg>
