<?xml version="1.0" encoding="UTF-8"?>
<svg version="1.1" xmlns="http://www.w3.org/2000/svg" width="180" height="180">
<path d="M0 0 C59.4 0 118.8 0 180 0 C180 59.4 180 118.8 180 180 C120.6 180 61.2 180 0 180 C0 120.6 0 61.2 0 0 Z " fill="#FDFDFD" transform="translate(0,0)"/>
<path d="M0 0 C2 0 2 0 4.21875 2.1484375 C5.1365625 3.08945312 6.054375 4.03046875 7 5 C9.1283273 6.9201813 11.31345712 8.77159795 13.5 10.625 C14.10948486 11.14425049 14.71896973 11.66350098 15.34692383 12.19848633 C17.22949154 13.8011111 19.11467767 15.4006174 21 17 C22.13942393 17.96993343 23.27875055 18.93998119 24.41796875 19.91015625 C29.46617373 24.20191611 34.53936635 28.45298719 39.6875 32.625 C44.08582786 36.20222179 48.29298854 39.94597541 52.484375 43.76171875 C55.90847074 46.80831325 59.46421717 49.67702162 63.02734375 52.55859375 C66.33750231 55.27718653 69.57521804 58.07055048 72.8125 60.875 C77.50263323 64.93256754 82.28058989 68.83286757 87.1875 72.625 C92.56953925 76.78596099 97.62615429 81.15882227 102.59765625 85.80859375 C104.92761736 88.0905488 104.92761736 88.0905488 107.7890625 89.61328125 C110.86152884 92.93002495 110.51526191 95.4194967 110.43945312 99.81640625 C110.39755859 100.78449219 110.35566406 101.75257813 110.3125 102.75 C110.28994141 103.73355469 110.26738281 104.71710938 110.24414062 105.73046875 C110.18528805 108.1551947 110.10313431 110.57681983 110 113 C105.96194134 111.63733356 103.45631882 109.8590849 100.375 106.9375 C96.91579043 103.73339438 93.41723434 100.65157731 89.75 97.6875 C85.43549115 94.19567292 81.20290489 90.62423581 77 87 C72.87544389 83.44532786 68.72791688 79.9320737 64.5 76.5 C59.09923828 72.11287098 53.825323 67.58776588 48.55078125 63.05078125 C41.28968997 56.80572679 33.99446571 50.6036885 26.5625 44.5625 C20.51439458 39.63900569 14.54264777 34.60996652 8.71118164 29.43066406 C7.00918943 27.95342882 7.00918943 27.95342882 5.03686523 26.70214844 C2.004278 24.57538899 0.25561868 23.17541573 -0.55126953 19.46508789 C-0.68886602 16.48746932 -0.61217999 13.60031845 -0.4375 10.625 C-0.40591797 9.60277344 -0.37433594 8.58054687 -0.34179688 7.52734375 C-0.25962544 5.01524566 -0.14484348 2.50913466 0 0 Z " fill="#373737" transform="translate(36,32)"/>
<path d="M0 0 C4.8396935 3.57087153 9.55081539 7.21962567 14.125 11.125 C14.94460205 11.82278564 14.94460205 11.82278564 15.78076172 12.53466797 C18.71512267 15.03566689 21.6391998 17.54858976 24.5625 20.0625 C25.74995631 21.08338416 26.93745618 22.10421765 28.125 23.125 C28.70999268 23.62821777 29.29498535 24.13143555 29.89770508 24.64990234 C33.49484518 27.73575084 37.13246668 30.76285998 40.8125 33.75 C42.11574219 34.85021484 42.11574219 34.85021484 43.4453125 35.97265625 C45.93484747 38.04788205 45.93484747 38.04788205 48.6796875 39.55859375 C51.7420668 41.54770928 53.21599591 42.77241772 55 46 C56.09875108 53.2639655 55.55060747 60.70374511 55 68 C50.6089353 64.77659923 46.34934666 61.54838586 42.375 57.8125 C38.39107386 54.1656753 34.2688156 50.80027528 30 47.5 C24.95398825 43.59517883 20.15461233 39.53067553 15.45703125 35.20703125 C11.83170768 31.95058003 8.04449269 28.90373204 4.25 25.84765625 C0.03941601 22.39000655 0.03941601 22.39000655 -0.22705078 19.75341797 C-0.21657715 18.84221191 -0.20610352 17.93100586 -0.1953125 16.9921875 C-0.18886719 16.00605469 -0.18242188 15.01992187 -0.17578125 14.00390625 C-0.15902344 12.97136719 -0.14226563 11.93882813 -0.125 10.875 C-0.11597656 9.83472656 -0.10695312 8.79445313 -0.09765625 7.72265625 C-0.07403747 5.14820908 -0.04110149 2.57421788 0 0 Z " fill="#393939" transform="translate(36,67)"/>
<path d="M0 0 C4.08006684 1.90314985 7.20610735 4.60834425 10.5625 7.5625 C11.82206003 8.65723639 13.08248534 9.75097798 14.34375 10.84375 C15.27574219 11.65199219 15.27574219 11.65199219 16.2265625 12.4765625 C18.63774159 14.5478397 21.09467909 16.55921009 23.5625 18.5625 C28.14083036 22.28029249 32.64732696 26.07450605 37.14013672 29.89453125 C41.66262721 33.73261728 46.24536763 37.49002679 50.85546875 41.22265625 C54.96222737 44.62625401 54.96222737 44.62625401 55.22705078 47.24658203 C55.21657715 48.15778809 55.20610352 49.06899414 55.1953125 50.0078125 C55.18886719 50.99394531 55.18242187 51.98007813 55.17578125 52.99609375 C55.15902344 54.02863281 55.14226562 55.06117187 55.125 56.125 C55.11597656 57.16527344 55.10695312 58.20554688 55.09765625 59.27734375 C55.07403747 61.85179092 55.04110149 64.42578212 55 67 C51.3543829 64.64413046 48.00192269 62.25515884 44.8125 59.3125 C41.57156479 56.37894134 38.27470153 53.56054997 34.875 50.8125 C30.33508267 47.1309704 25.90481746 43.34186247 21.5 39.5 C11.11397401 30.2817643 11.11397401 30.2817643 0 22 C-0.34057617 19.75341797 -0.34057617 19.75341797 -0.29296875 16.9921875 C-0.28330078 16.00605469 -0.27363281 15.01992188 -0.26367188 14.00390625 C-0.23853516 12.97136719 -0.21339844 11.93882813 -0.1875 10.875 C-0.17396484 9.83472656 -0.16042969 8.79445313 -0.14648438 7.72265625 C-0.11105228 5.14792373 -0.06165221 2.5742167 0 0 Z " fill="#393939" transform="translate(91,44)"/>
<path d="M0 0 C4.68776222 2.53246925 8.42415848 5.85256298 12.375 9.375 C13.6509209 10.5108808 14.92955136 11.64372564 16.2109375 12.7734375 C16.83379639 13.3310376 17.45665527 13.8886377 18.09838867 14.46313477 C19.94210815 16.04508386 19.94210815 16.04508386 22.02075195 17.11303711 C24.09996722 18.25885608 25.49570204 19.15437205 27 21 C27.85515428 24.96937924 27.66187069 28.77629327 27.4375 32.8125 C27.40591797 33.88693359 27.37433594 34.96136719 27.34179688 36.06835938 C27.25945583 38.71503569 27.14453557 41.35611094 27 44 C21.75177656 40.15432641 16.71613703 36.14996562 11.8125 31.875 C10.63219204 30.85077648 9.45121485 29.82732359 8.26953125 28.8046875 C7.71692627 28.31291016 7.16432129 27.82113281 6.5949707 27.31445312 C4.86820207 25.81618736 4.86820207 25.81618736 2.09375 24.3359375 C-1.42511242 20.41004249 -0.5210319 15.80609657 -0.3125 10.75 C-0.28994141 9.71875 -0.26738281 8.6875 -0.24414062 7.625 C-0.18527163 5.08185935 -0.10310065 2.54166887 0 0 Z " fill="#383838" transform="translate(119,32)"/>
<path d="M0 0 C5.47631966 3.99322516 10.66925391 8.20418316 15.75 12.6875 C17.03536732 13.81764831 18.32179361 14.94659357 19.609375 16.07421875 C20.16592773 16.56494873 20.72248047 17.05567871 21.29589844 17.5612793 C23.01285529 19.08050922 23.01285529 19.08050922 25.1875 20.36376953 C27 22 27 22 27.45410156 24.36010742 C27.42268066 25.71906128 27.42268066 25.71906128 27.390625 27.10546875 C27.37128906 28.57983398 27.37128906 28.57983398 27.3515625 30.08398438 C27.31804688 31.10814453 27.28453125 32.13230469 27.25 33.1875 C27.23195313 34.22326172 27.21390625 35.25902344 27.1953125 36.32617188 C27.14814437 38.88504284 27.08234057 41.44205842 27 44 C23.82406685 42.47999765 21.52955263 40.8357543 18.9375 38.4375 C14.5485679 34.44888509 10.00219479 30.69834766 5.3828125 26.98046875 C4.59648438 26.32691406 3.81015625 25.67335938 3 25 C2.46189697 24.56945312 1.92379395 24.13890625 1.36938477 23.6953125 C-0.51144159 21.36683002 -0.34438635 19.85961302 -0.29296875 16.89453125 C-0.28330078 15.91162109 -0.27363281 14.92871094 -0.26367188 13.91601562 C-0.23853516 12.89185547 -0.21339844 11.86769531 -0.1875 10.8125 C-0.17396484 9.77673828 -0.16042969 8.74097656 -0.14648438 7.67382812 C-0.11111389 5.11536301 -0.06175544 2.5579422 0 0 Z " fill="#393939" transform="translate(36,102)"/>
</svg>
