<?xml version="1.0" encoding="UTF-8"?>
<svg version="1.1" xmlns="http://www.w3.org/2000/svg" width="32" height="32">
<path d="M0 0 C10.56 0 21.12 0 32 0 C32 10.56 32 21.12 32 32 C21.44 32 10.88 32 0 32 C0 21.44 0 10.88 0 0 Z " fill="#FAFAFA" transform="translate(0,0)"/>
<path d="M0 0 C4.51103836 2.08932957 7.93671235 5.09702933 11.6875 8.3125 C12.72100586 9.16618164 12.72100586 9.16618164 13.77539062 10.03710938 C18.77727945 14.3209296 18.77727945 14.3209296 19.95703125 17.91796875 C19.97121094 18.60503906 19.98539063 19.29210937 20 20 C14.34921401 15.97499881 9.19589926 11.56339297 4.1015625 6.85546875 C2.13854129 4.9622991 2.13854129 4.9622991 0 4 C0 2.68 0 1.36 0 0 Z " fill="#484848" transform="translate(6,6)"/>
<path d="M0 0 C2.00698975 1.3227887 4.00591923 2.65783025 6 4 C6.78375 4.495 7.5675 4.99 8.375 5.5 C8.91125 5.995 9.4475 6.49 10 7 C10 8.32 10 9.64 10 11 C6.01867611 9.31559374 3.10802023 6.96674659 0 4 C0 2.68 0 1.36 0 0 Z " fill="#4A4A4A" transform="translate(16,8)"/>
<path d="M0 0 C3.71547321 2.36439204 7.15425568 4.60699716 10 8 C10 8.99 10 9.98 10 11 C6.01867611 9.31559374 3.10802023 6.96674659 0 4 C0 2.68 0 1.36 0 0 Z " fill="#4B4B4B" transform="translate(6,12)"/>
<path d="M0 0 C1.65 0.99 3.3 1.98 5 3 C4.67 4.32 4.34 5.64 4 7 C2 5.75 2 5.75 0 4 C0 2.68 0 1.36 0 0 Z " fill="#4B4B4B" transform="translate(21,6)"/>
<path d="M0 0 C2.5 1.8125 2.5 1.8125 5 4 C5 4.99 5 5.98 5 7 C3.0625 6.3125 3.0625 6.3125 1 5 C0.25 2.375 0.25 2.375 0 0 Z " fill="#515151" transform="translate(6,18)"/>
</svg>
